<?xml version="1.0" encoding="UTF-8" standalone="no"?>
<!-- Created with Inkscape (http://www.inkscape.org/) -->

<svg
   xmlns:dc="http://purl.org/dc/elements/1.1/"
   xmlns:cc="http://creativecommons.org/ns#"
   xmlns:rdf="http://www.w3.org/1999/02/22-rdf-syntax-ns#"
   xmlns:svg="http://www.w3.org/2000/svg"
   xmlns="http://www.w3.org/2000/svg"
   xmlns:sodipodi="http://sodipodi.sourceforge.net/DTD/sodipodi-0.dtd"
   xmlns:inkscape="http://www.inkscape.org/namespaces/inkscape"
   width="180"
   height="32"
   id="svg2"
   version="1.1"
   inkscape:version="0.48.3.1 r9886"
   sodipodi:docname="icons.svg">
  <sodipodi:namedview
     id="base"
     pagecolor="#ffffff"
     bordercolor="#666666"
     borderopacity="1.0"
     inkscape:pageopacity="0.0"
     inkscape:pageshadow="2"
     inkscape:zoom="4"
     inkscape:cx="143.93021"
     inkscape:cy="15.944557"
     inkscape:document-units="px"
     inkscape:current-layer="layer2"
     showgrid="true"
     showguides="true"
     inkscape:guide-bbox="true"
     inkscape:snap-global="false"
     inkscape:window-width="1391"
     inkscape:window-height="876"
     inkscape:window-x="49"
     inkscape:window-y="24"
     inkscape:window-maximized="1">
    <sodipodi:guide
       id="guide2818"
       position="32,-2.4582734"
       orientation="1,0" />
    <sodipodi:guide
       id="guide2820"
       position="64,-30.48259"
       orientation="1,0" />
    <inkscape:grid
       dotted="true"
       snapvisiblegridlinesonly="true"
       enabled="true"
       visible="true"
       empspacing="1"
       id="grid3600"
       type="xygrid" />
    <sodipodi:guide
       id="guide3717"
       position="96,35"
       orientation="1,0" />
    <sodipodi:guide
       id="guide3719"
       position="128,14"
       orientation="1,0" />
    <sodipodi:guide
       id="guide3738"
       position="50,32"
       orientation="0,1" />
    <sodipodi:guide
       id="guide3793"
       position="50,45"
       orientation="1,0" />
    <sodipodi:guide
       id="guide3827"
       position="160,5"
       orientation="1,0" />
    <sodipodi:guide
       orientation="1,0"
       position="192,22"
       id="guide6889" />
  </sodipodi:namedview>
  <defs
     id="defs4">
    <inkscape:perspective
       id="perspective10"
       inkscape:persp3d-origin="372.04724 : 350.78739 : 1"
       inkscape:vp_z="744.09448 : 526.18109 : 1"
       inkscape:vp_y="0 : 1000 : 0"
       inkscape:vp_x="0 : 526.18109 : 1"
       sodipodi:type="inkscape:persp3d" />
    <inkscape:perspective
       sodipodi:type="inkscape:persp3d"
       inkscape:vp_x="0 : 24 : 1"
       inkscape:vp_y="0 : 1000 : 0"
       inkscape:vp_z="48 : 24 : 1"
       inkscape:persp3d-origin="24 : 16 : 1"
       id="perspective3675" />
    <inkscape:perspective
       sodipodi:type="inkscape:persp3d"
       inkscape:vp_x="0 : 24 : 1"
       inkscape:vp_y="0 : 1000 : 0"
       inkscape:vp_z="48 : 24 : 1"
       inkscape:persp3d-origin="24 : 16 : 1"
       id="perspective3749" />
    <inkscape:perspective
       sodipodi:type="inkscape:persp3d"
       inkscape:vp_x="0 : 24 : 1"
       inkscape:vp_y="0 : 1000 : 0"
       inkscape:vp_z="48 : 24 : 1"
       inkscape:persp3d-origin="24 : 16 : 1"
       id="perspective3764" />
    <inkscape:perspective
       sodipodi:type="inkscape:persp3d"
       inkscape:vp_x="0 : 0.5 : 1"
       inkscape:vp_y="0 : 1000 : 0"
       inkscape:vp_z="1 : 0.5 : 1"
       inkscape:persp3d-origin="0.5 : 0.33333333 : 1"
       id="perspective3779" />
    <linearGradient
       id="linearGradient2698">
      <stop
         id="stop2700"
         offset="0"
         style="stop-color:#555753" />
      <stop
         style="stop-color:#a3a5a2;stop-opacity:1;"
         offset="0.70238096"
         id="stop2706" />
      <stop
         id="stop2702"
         offset="1"
         style="stop-color:#888a85" />
    </linearGradient>
    <linearGradient
       id="linearGradient2617">
      <stop
         id="stop2619"
         offset="0"
         style="stop-color:#fbfbfa;stop-opacity:1;" />
      <stop
         id="stop2621"
         offset="1"
         style="stop-color:#d3d7cf" />
    </linearGradient>
    <linearGradient
       id="linearGradient4919">
      <stop
         style="stop-color:#429eff;stop-opacity:1;"
         offset="0"
         id="stop4921" />
      <stop
         style="stop-color:#0044a7;stop-opacity:1;"
         offset="1"
         id="stop4923" />
    </linearGradient>
    <linearGradient
       id="linearGradient15493">
      <stop
         style="stop-color:#eeeeec;stop-opacity:1;"
         offset="0"
         id="stop15495" />
      <stop
         style="stop-color:#ffffff;stop-opacity:1"
         offset="1"
         id="stop15497" />
    </linearGradient>
    <inkscape:perspective
       sodipodi:type="inkscape:persp3d"
       inkscape:vp_x="0 : 24 : 1"
       inkscape:vp_y="0 : 1000 : 0"
       inkscape:vp_z="48 : 24 : 1"
       inkscape:persp3d-origin="24 : 16 : 1"
       id="perspective3857" />
    <inkscape:perspective
       id="perspective4548"
       inkscape:persp3d-origin="0.5 : 0.33333333 : 1"
       inkscape:vp_z="1 : 0.5 : 1"
       inkscape:vp_y="0 : 1000 : 0"
       inkscape:vp_x="0 : 0.5 : 1"
       sodipodi:type="inkscape:persp3d" />
  </defs>
  <metadata
     id="metadata7">
    <rdf:RDF>
      <cc:Work
         rdf:about="">
        <dc:format>image/svg+xml</dc:format>
        <dc:type
           rdf:resource="http://purl.org/dc/dcmitype/StillImage" />
        <dc:title></dc:title>
      </cc:Work>
    </rdf:RDF>
  </metadata>
  <g
     style="display:none"
     inkscape:label="Layer"
     id="layer3"
     inkscape:groupmode="layer"
     sodipodi:insensitive="true">
    <rect
       y="-32"
       x="0"
       height="64"
       width="224"
       id="rect3694"
       style="fill:#000000;fill-opacity:1;stroke:#ffffb6;stroke-width:0;stroke-linecap:butt;stroke-miterlimit:4;stroke-opacity:1;stroke-dasharray:none;stroke-dashoffset:0" />
  </g>
  <g
     style="display:inline"
     transform="translate(0,-1020.3622)"
     id="layer1"
     inkscape:groupmode="layer"
     inkscape:label="Layer 1">
    <rect
       y="1026.3622"
       x="6"
       height="20"
       width="20"
       id="rect2816"
       style="fill:none;stroke:#ffffff;stroke-width:4;stroke-linecap:butt;stroke-miterlimit:4;stroke-opacity:1;stroke-dasharray:none;stroke-dashoffset:0" />
    <rect
       style="fill:none;stroke:#ffffff;stroke-width:3.99999976;stroke-linecap:butt;stroke-miterlimit:4;stroke-opacity:1;stroke-dasharray:none;stroke-dashoffset:0"
       id="rect3596"
       width="12"
       height="20"
       x="46"
       y="1026.3622" />
    <rect
       y="1026.3622"
       x="38"
       height="20.000019"
       width="8"
       id="rect3598"
       style="fill:none;stroke:#ffffff;stroke-width:3.99999809;stroke-linecap:butt;stroke-miterlimit:4;stroke-opacity:1;stroke-dasharray:none;stroke-dashoffset:0" />
    <rect
       y="1026.3622"
       x="79"
       height="20"
       width="11"
       id="rect3602"
       style="fill:none;stroke:#ffffff;stroke-width:3.99999976;stroke-linecap:butt;stroke-miterlimit:4;stroke-opacity:1;stroke-dasharray:none;stroke-dashoffset:0" />
    <rect
       style="fill:none;stroke:#ffffff;stroke-width:3.99999976;stroke-linecap:butt;stroke-miterlimit:4;stroke-opacity:1;stroke-dasharray:none;stroke-dashoffset:0"
       id="rect3604"
       width="9"
       height="8.9998789"
       x="70"
       y="1037.3622" />
    <rect
       y="1026.3622"
       x="69.999992"
       height="9.0000181"
       width="9.0000076"
       id="rect3606"
       style="fill:none;stroke:#ffffff;stroke-width:3.99999905;stroke-linecap:butt;stroke-miterlimit:4;stroke-opacity:1;stroke-dasharray:none;stroke-dashoffset:0" />
    <path
       id="path9"
       d="m 124,1035.6409 -1.53599,-5.3116 -3.584,1.0492 c -0.70401,-1.0492 -1.72801,-1.9672 -2.816,-2.6229 l 0.576,-3.6065 -5.88801,-0.7869 -0.512,3.4753 c -0.192,0.066 -0.448,0.1312 -0.64,0.1967 -0.768,0.1968 -1.472,0.5902 -2.11199,0.9837 l -2.75201,-2.164 -3.64799,4.5246 2.88,2.2952 c -0.25601,0.7212 -0.384,1.5081 -0.384,2.3607 l -3.58401,1.0491 1.536,5.3116 3.584,-1.0492 c 0.70401,1.0492 1.72801,1.9672 2.816,2.6229 l -0.576,3.6065 5.888,0.7869 0.51201,-3.4754 c 0.192,-0.066 0.448,-0.1311 0.64,-0.1967 0.768,-0.1968 1.472,-0.5902 2.112,-0.9837 l 2.752,2.164 3.64799,-4.5245 -2.88,-2.2952 c 0.256,-0.7213 0.38401,-1.5082 0.38401,-2.3607 l 3.58399,-1.0491 0,0 z m -11.2,3.8688 c -1.792,0.5246 -3.712,-0.5245 -4.28799,-2.3607 -0.57601,-1.836 0.51199,-3.8033 2.30399,-4.3934 1.792,-0.5245 3.71201,0.5247 4.288,2.3606 0.51201,1.8361 -0.51199,3.8033 -2.304,4.3935 z"
       style="fill:#ffffff;fill-opacity:1;fill-rule:nonzero;stroke:none" />
    <g
       transform="matrix(0.58633094,0,0,0.58633094,98.165827,1022.4759)"
       style="fill-rule:nonzero;stroke:#000000;stroke-width:1.70552146;stroke-miterlimit:4"
       id="crop_x0020_marks">
      <path
         id="path12"
         d="M 48,48 0,48 0,0 48,0 48,48 z"
         style="fill:none;stroke:none" />
    </g>
    <path
       sodipodi:nodetypes="cccc"
       id="path4903"
       d="m 20,995.41475 0,17.89475 10,-8.9474 -10,-8.94735 z"
       style="fill:#ffffff;fill-opacity:1;fill-rule:evenodd;stroke:none;display:inline" />
    <g
       transform="translate(0,1020.3622)"
       id="g3820"
       style="display:inline">
      <rect
         style="fill:#ffffff;fill-opacity:1;stroke:none"
         id="rect3812"
         width="6"
         height="18"
         x="67"
         y="-25" />
      <rect
         y="-25"
         x="77"
         height="18"
         width="6"
         id="rect3818"
         style="fill:#ffffff;fill-opacity:1;stroke:none" />
    </g>
    <g
       transform="matrix(0.59981179,0,0,0.59981179,129.60075,1021.9339)"
       id="layer5"
       inkscape:label="Text"
       style="display:inline">
      <path
         style="fill:#ffffff;fill-opacity:1;stroke:none"
         d="M 141.59375,3.96875 C 136.29348,3.96875 132,8.2622295 132,13.5625 c 0,5.30027 4.29348,9.59375 9.59375,9.59375 5.30027,0 9.59375,-4.29348 9.59375,-9.59375 0,-5.3002705 -4.29348,-9.59375 -9.59375,-9.59375 z m -5.09375,4.5 0.90625,0 8.375,0 0.90625,0 0,0.90625 0,8.40625 0,0.875 -0.90625,0 -8.375,0 -0.90625,0 0,-0.875 0,-8.40625 0,-0.90625 z m 1.8125,1.8125 0,6.59375 6.59375,0 0,-6.59375 -6.59375,0 z"
         transform="matrix(1.6671896,0,0,1.6671896,-216.06903,-2.620322)"
         id="path4119" />
      <path
         style="color:#000000;fill:#ffffff;fill-opacity:1;fill-rule:nonzero;stroke:none;stroke-width:8;marker:none;visibility:visible;display:inline;overflow:visible"
         d="m 29.5,29.5 2,6.5 7,7.5 c 0.482472,0.516934 2.732233,1.267767 4.5,-0.5 1.5,-1.5 1.033333,-4.002223 0.5,-4.5 l -7.5,-7 -6.5,-2 z"
         id="path15511"
         sodipodi:nodetypes="cczzzcc" />
      <rect
         style="fill:none;stroke:none"
         id="rect17259"
         width="17"
         height="17"
         x="11.5"
         y="11.5" />
    </g>
    <path
       id="path4465"
       title="sin(x)"
       d="m 0.9999996,1060.3623 c 0.4242429,-1.333 0.8484848,-2.6634 1.2727277,-3.7851 0.4242428,-1.1216 0.8484847,-2.0292 1.2727266,-2.5834 0.4242429,-0.5541 0.8484858,-0.7508 1.2727268,-0.5614 0.4242429,0.1893 0.8484848,0.7661 1.2727267,1.6387 0.4242437,0.8727 0.8484858,2.0398 1.2727277,3.3188 0.4242428,1.2789 0.8484848,2.6656 1.2727284,3.9449 0.424242,1.2792 0.8484841,2.4455 1.2727267,3.3186 0.4242418,0.8733 0.8484848,1.4489 1.2727278,1.6388 0.424241,0.1901 0.848483,-0.01 1.272725,-0.5614 0.424244,-0.5534 0.848485,-1.4622 1.272728,-2.5833 0.424242,-1.1212 0.848485,-2.4521 1.272729,-3.7852"
       style="fill:none;stroke:#535353;stroke-width:1.99999988;stroke-linecap:round;stroke-miterlimit:4;stroke-opacity:1;stroke-dasharray:none;stroke-dashoffset:0"
       inkscape:export-filename="/home/km/Projects/nonolith/pixelpulse/img/sine.png"
       inkscape:export-xdpi="90"
       inkscape:export-ydpi="90" />
    <path
       id="path3895"
       d="m 17,1060.9485 4.207285,-7.5863 5.485023,14 L 31,1060.9485"
       style="fill:none;stroke:#535353;stroke-width:2;stroke-linecap:round;stroke-linejoin:round;stroke-miterlimit:4;stroke-opacity:1;stroke-dasharray:none;display:inline"
       sodipodi:nodetypes="cccc"
       inkscape:export-filename="/home/km/Projects/nonolith/pixelpulse/img/triangle.png"
       inkscape:export-xdpi="90"
       inkscape:export-ydpi="90" />
    <path
       sodipodi:nodetypes="cccccc"
       style="fill:none;stroke:#535353;stroke-width:1.99999988;stroke-linecap:round;stroke-linejoin:round;stroke-miterlimit:4;stroke-opacity:1;stroke-dasharray:none;display:inline"
       d="m 33,1060.3622 0,-7 7,0 0,14 7,0 0,-7"
       id="path4562"
       inkscape:export-filename="/home/km/Projects/nonolith/pixelpulse/img/square.png"
       inkscape:export-xdpi="90"
       inkscape:export-ydpi="90" />
    <g
       id="g5210"
       inkscape:export-filename="/home/km/Projects/nonolith/pixelpulse/img/constant.png"
       inkscape:export-xdpi="90"
       inkscape:export-ydpi="90">
      <rect
         y="1052.3622"
         x="48"
         height="16"
         width="16"
         id="rect5208"
         style="fill:#ffffff;fill-opacity:0.04017855;stroke:none" />
      <path
         d="m 51.8,1063.3622 -2.8,-3 2.8,-3 m 8.4,0 2.8,3 -2.8,3 m -11.2,-3 13.066666,0"
         style="fill:none;stroke:#535353;stroke-width:2;stroke-linecap:round;stroke-linejoin:round;stroke-miterlimit:4;stroke-opacity:1;stroke-dasharray:none;display:inline"
         id="path5204" />
    </g>
    <path
       style="font-size:medium;font-style:normal;font-variant:normal;font-weight:normal;font-stretch:normal;text-indent:0;text-align:start;text-decoration:none;line-height:normal;letter-spacing:normal;word-spacing:normal;text-transform:none;direction:ltr;block-progression:tb;writing-mode:lr-tb;text-anchor:start;color:#000000;fill:#ffffff;fill-opacity:1;stroke:none;stroke-width:4;marker:none;visibility:visible;display:inline;overflow:visible;enable-background:accumulate;font-family:Bitstream Charter;-inkscape-font-specification:Bitstream Charter"
       d="M 170.5 3 C 170.0389 3 169.57647 3.10755 169.1875 3.28125 C 168.40956 3.62885 167.86577 4.1499 167.40625 4.75 C 166.49011 5.9468 165.82143 7.50245 165.125 9.34375 C 164.42928 11.18315 163.76065 13.2796 163.09375 15.375 A 2.0012889 2.0012889 0 0 0 166.90625 16.59375 C 167.57269 14.49975 168.23736 12.4359 168.875 10.75 C 169.47142 9.1732 170.0498 8.00765 170.46875 7.40625 C 170.60925 7.58905 170.76727 7.6981 171.1875 8.5625 C 171.7768 9.7747 172.43803 11.55455 173.09375 13.53125 C 173.74984 15.50915 174.41657 17.67655 175.09375 19.71875 C 175.7715 21.76225 176.44392 23.6572 177.1875 25.1875 C 177.93223 26.7206 178.59906 27.9765 180.1875 28.6875 C 180.98703 29.0457 182.03689 29.0356 182.8125 28.6875 C 183.58811 28.3394 184.13529 27.81435 184.59375 27.21875 C 185.4539 26.096723 186.10024 24.686201 186.75 23 L 185 23 L 185 21 L 187 21 L 187 22.3125 C 187.65205 20.550621 188.27856 18.566159 188.90625 16.59375 A 2.0012889 2.0012889 0 0 0 185.09375 15.375 C 184.42729 17.4693 183.76246 19.53395 183.125 21.21875 C 183.08326 21.329051 183.04177 21.425053 183 21.53125 L 183 23 L 182.375 23 C 182.04714 23.689095 181.73973 24.220181 181.5 24.5625 C 181.34331 24.365 181.21922 24.2748 180.8125 23.4375 C 180.22276 22.2238 179.56186 20.44555 178.90625 18.46875 C 178.25011 16.49005 177.58348 14.2916 176.90625 12.25 C 176.22861 10.2072 175.55652 8.3429 174.8125 6.8125 C 174.06811 5.2813 173.40656 3.99265 171.8125 3.28125 C 171.41486 3.10375 170.9611 2.9983 170.5 3 z M 182.375 23 C 182.57818 22.572966 182.78672 22.073519 183 21.53125 L 183 21 L 181 21 L 181 23 L 182.375 23 z M 187 22.3125 C 186.95931 22.422452 186.91588 22.548226 186.875 22.65625 C 186.83096 22.772649 186.79388 22.886127 186.75 23 L 187 23 L 187 22.3125 z M 161 21 L 161 23 L 163 23 L 163 21 L 161 21 z M 165 21 L 165 23 L 167 23 L 167 21 L 165 21 z M 169 21 L 169 23 L 171 23 L 171 21 L 169 21 z M 173 21 L 173 23 L 175 23 L 175 21 L 173 21 z M 177 21 L 179 21 L 179 23 L 177 23 L 177 21 z M 189 21 L 189 23 L 191 23 L 191 21 L 189 21 z "
       transform="translate(0,1020.3622)"
       id="path2872" />
    <path
       id="path3663"
       title="sin(x)"
       d="m 165,1036.3622 c 0.66667,-2.0947 1.33333,-4.1853 2.00001,-5.948 0.66666,-1.7625 1.33332,-3.1888 1.99999,-4.0597 0.66668,-0.8707 1.33334,-1.1798 2,-0.8822 0.66666,0.2975 1.33334,1.2039 2.00001,2.5752 0.66666,1.3713 1.33332,3.2054 2,5.2152 0.66666,2.0097 1.33333,4.1888 1.99999,6.1992 0.66668,2.0102 1.33334,3.8429 2,5.2149 0.66667,1.3724 1.33333,2.2769 2.00001,2.5753 0.66666,0.2987 1.33332,-0.016 1.99999,-0.8822 0.66667,-0.8696 1.33334,-2.2977 2,-4.0595 0.66666,-1.7619 1.33334,-3.8533 2,-5.9482"
       style="fill:none;stroke:#ffffff;stroke-width:4;stroke-linecap:round;stroke-miterlimit:4;stroke-opacity:1;stroke-dasharray:none;stroke-dashoffset:0;opacity:0"
       inkscape:export-filename="/home/km/Projects/nonolith/pixelpulse/img/sine.png"
       inkscape:export-xdpi="90"
       inkscape:export-ydpi="90" />
    <g
       style="display:inline"
       id="layer1-9"
       transform="matrix(0.5,0,0,0.5,208.73483,1077.3951)">
      <path
         d="m -22,-101.875 c 23.049,0 26,3.931288 26,21.875 h 8 L -1,-66.875 -15,-80 h 9 c 0,-10.99525 -2.454,-14 -16,-14 v -7.875 z"
         style="color:#000000;fill:#ffffff;display:block"
         id="path1348"
         inkscape:connector-curvature="0" />
      <rect
         x="48"
         y="0"
         width="0"
         height="0"
         rx="0"
         style="fill:none"
         id="rect3091" />
    </g>
    <rect
       style="fill:#ffffff;fill-opacity:1;stroke:none;display:inline"
       id="rect6887"
       width="13.40901"
       height="2.6451457"
       x="201.2955"
       y="1044.4952"
       inkscape:transform-center-x="-4.8988277"
       inkscape:transform-center-y="-1.8704004" />
  </g>
  <g
     style="display:inline"
     inkscape:label="sel"
     id="layer2"
     inkscape:groupmode="layer">
    <rect
       inkscape:export-ydpi="90"
       inkscape:export-xdpi="90"
       inkscape:export-filename="/home/km/Projects/nonolith/pixelpulse/img/sidegraph-layout-0.png"
       y="1020.3621"
       x="0"
       height="32"
       width="32"
       id="rect3610"
       style="fill:#000000;fill-opacity:0;stroke:#ffff4d;stroke-width:0;stroke-linecap:butt;stroke-miterlimit:4;stroke-opacity:1;stroke-dasharray:none;stroke-dashoffset:0"
       transform="translate(0,-1020.3622)" />
    <rect
       inkscape:export-ydpi="90"
       inkscape:export-xdpi="90"
       inkscape:export-filename="/home/km/Projects/nonolith/pixelpulse/img/sidegraph-layout-1.png"
       style="fill:#000000;fill-opacity:0;stroke:#ffff4d;stroke-width:0;stroke-linecap:butt;stroke-miterlimit:4;stroke-opacity:1;stroke-dasharray:none;stroke-dashoffset:0"
       id="rect3612"
       width="32"
       height="32"
       x="32"
       y="1020.3621"
       transform="translate(0,-1020.3622)" />
    <rect
       inkscape:export-ydpi="90"
       inkscape:export-xdpi="90"
       inkscape:export-filename="/home/km/Projects/nonolith/pixelpulse/img/sidegraph-layout-2.png"
       y="1020.3621"
       x="64"
       height="32"
       width="32"
       id="rect3614"
       style="fill:#000000;fill-opacity:0;stroke:#ffff4d;stroke-width:0;stroke-linecap:butt;stroke-miterlimit:4;stroke-opacity:1;stroke-dasharray:none;stroke-dashoffset:0"
       transform="translate(0,-1020.3622)" />
    <rect
       style="fill:#000000;fill-opacity:0;stroke:#ffff4d;stroke-width:0;stroke-linecap:butt;stroke-miterlimit:4;stroke-opacity:1;stroke-dasharray:none;stroke-dashoffset:0"
       id="rect3736"
       width="32"
       height="32"
       x="96"
       y="-7.8417972e-05"
       inkscape:export-filename="/home/km/Projects/nonolith/pixelpulse/img/gear.png"
       inkscape:export-xdpi="90"
       inkscape:export-ydpi="90" />
    <rect
       style="fill:#000000;fill-opacity:0;stroke:#ffff4d;stroke-width:0;stroke-linecap:butt;stroke-miterlimit:4;stroke-opacity:1;stroke-dasharray:none;stroke-dashoffset:0"
       id="rect3795"
       width="50"
       height="32"
       x="0"
       y="-32.000076"
       inkscape:export-filename="/home/km/Projects/nonolith/pixelpulse/img/play.png"
       inkscape:export-xdpi="90"
       inkscape:export-ydpi="90" />
    <rect
       inkscape:export-ydpi="90"
       inkscape:export-xdpi="90"
       inkscape:export-filename="/home/km/Projects/nonolith/pixelpulse/img/pause.png"
       y="-32.000076"
       x="50"
       height="32"
       width="50"
       id="rect3797"
       style="fill:#000000;fill-opacity:0;stroke:#ffff4d;stroke-width:0;stroke-linecap:butt;stroke-miterlimit:4;stroke-opacity:1;stroke-dasharray:none;stroke-dashoffset:0" />
    <rect
       inkscape:export-ydpi="90"
       inkscape:export-xdpi="90"
       inkscape:export-filename="/home/km/Projects/nonolith/pixelpulse/img/zoomfit.png"
       y="-7.8417972e-05"
       x="128"
       height="32"
       width="32"
       id="rect3891"
       style="fill:#000000;fill-opacity:0;stroke:#ffff4d;stroke-width:0;stroke-linecap:butt;stroke-miterlimit:4;stroke-opacity:1;stroke-dasharray:none;stroke-dashoffset:0" />
    <rect
       inkscape:export-ydpi="90"
       inkscape:export-xdpi="90"
       inkscape:export-filename="/home/km/Projects/nonolith/pixelpulse/img/download.png"
       y="0"
       x="160"
       height="32"
       width="32"
       id="trigger"
       style="fill:#000000;fill-opacity:0;stroke:#ffff4d;stroke-width:0;stroke-linecap:butt;stroke-miterlimit:4;stroke-opacity:1;stroke-dasharray:none;stroke-dashoffset:0" />
    <rect
       inkscape:export-ydpi="90"
       inkscape:export-xdpi="90"
       inkscape:export-filename="/home/km/Projects/nonolith/pixelpulse/img/download.png"
       style="fill:#000000;fill-opacity:0;stroke:#ffff4d;stroke-width:0;stroke-linecap:butt;stroke-miterlimit:4;stroke-opacity:1;stroke-dasharray:none;stroke-dashoffset:0;display:inline"
       id="rect3612-3"
       width="32"
       height="32"
       x="192"
       y="0" />
  </g>
</svg>
